<?xml version="1.0" standalone="no"?>
<!DOCTYPE svg PUBLIC "-//W3C//DTD SVG 20010904//EN"
 "http://www.w3.org/TR/2001/REC-SVG-20010904/DTD/svg10.dtd">
<svg version="1.0" xmlns="http://www.w3.org/2000/svg"
 width="700.000000pt" height="241.000000pt" viewBox="0 0 700.000000 241.000000"
 preserveAspectRatio="xMidYMid meet">

<g transform="translate(0.000000,241.000000) scale(0.100000,-0.100000)"
fill="#000000" stroke="none">
<path d="M4752 1360 c0 -14 2 -19 5 -12 2 6 2 18 0 25 -3 6 -5 1 -5 -13z"/>
<path d="M4062 1270 c0 -19 2 -27 5 -17 2 9 2 25 0 35 -3 9 -5 1 -5 -18z"/>
<path d="M5332 1219 c-15 -64 -14 -133 3 -229 l13 -75 1 178 c1 97 0 177 -2
177 -2 0 -9 -23 -15 -51z"/>
<path d="M811 1244 c0 -11 3 -14 6 -6 3 7 2 16 -1 19 -3 4 -6 -2 -5 -13z"/>
<path d="M4831 1178 c-1 -87 0 -89 47 -173 26 -47 48 -81 49 -77 1 4 -20 81
-47 172 l-49 165 0 -87z"/>
<path d="M3451 1214 c0 -11 3 -14 6 -6 3 7 2 16 -1 19 -3 4 -6 -2 -5 -13z"/>
<path d="M5820 1143 c0 -82 3 -95 35 -159 19 -38 34 -66 35 -63 0 14 -60 303
-65 307 -3 3 -5 -35 -5 -85z"/>
<path d="M2921 1080 c0 -65 0 -65 54 -124 l55 -59 -41 94 c-76 173 -68 163
-68 89z"/>
<path d="M2414 1047 c-9 -51 -8 -57 23 -113 28 -50 33 -69 33 -126 0 -60 2
-68 19 -68 17 0 16 11 -18 174 -20 96 -39 177 -42 180 -3 3 -10 -18 -15 -47z"/>
<path d="M1142 1042 c-16 -73 -16 -75 19 -101 30 -22 31 -23 24 -2 -3 11 -12
51 -19 88 l-13 68 -11 -53z"/>
<path d="M1912 978 c-10 -30 -10 -31 3 -14 13 17 21 46 12 46 -1 0 -8 -15 -15
-32z"/>
<path d="M972 960 c0 -14 2 -19 5 -12 2 6 2 18 0 25 -3 6 -5 1 -5 -13z"/>
<path d="M3173 960 c7 -20 89 -204 93 -209 2 -2 4 22 4 55 -1 57 -2 61 -51
114 -28 30 -49 48 -46 40z"/>
<path d="M5080 955 c1 -6 11 -50 24 -99 l23 -89 13 51 c11 49 11 52 -16 89
-39 53 -44 59 -44 48z"/>
<path d="M811 914 c0 -11 3 -14 6 -6 3 7 2 16 -1 19 -3 4 -6 -2 -5 -13z"/>
<path d="M1751 894 c0 -11 3 -14 6 -6 3 7 2 16 -1 19 -3 4 -6 -2 -5 -13z"/>
<path d="M1987 898 c-16 -12 -16 -14 3 -26 18 -11 20 -10 20 13 0 29 -1 29
-23 13z"/>
<path d="M4416 893 c-6 -14 -5 -15 5 -6 7 7 10 15 7 18 -3 3 -9 -2 -12 -12z"/>
<path d="M4493 823 c-18 -7 -16 -16 5 -30 17 -10 18 -8 14 13 -2 13 -5 24 -6
23 0 0 -7 -3 -13 -6z"/>
<path d="M632 795 c0 -16 2 -22 5 -12 2 9 2 23 0 30 -3 6 -5 -1 -5 -18z"/>
<path d="M5343 715 c0 -22 2 -30 4 -17 2 12 2 30 0 40 -3 9 -5 -1 -4 -23z"/>
<path d="M1220 703 c0 -6 -3 -18 -6 -27 -4 -11 -1 -16 10 -16 9 0 16 6 16 13
0 16 -20 46 -20 30z"/>
<path d="M2523 594 c12 -42 22 -73 24 -68 6 18 -23 138 -33 141 -7 2 -3 -27 9
-73z"/>
<path d="M5950 599 c0 -13 5 -31 10 -39 7 -11 8 -5 4 20 -8 43 -14 51 -14 19z"/>
<path d="M1239 583 c5 -10 14 -44 21 -76 18 -80 25 -64 9 22 -8 48 -17 71 -26
71 -10 0 -11 -5 -4 -17z"/>
</g>
</svg>
