<?xml version="1.0" standalone="no"?>
<!DOCTYPE svg PUBLIC "-//W3C//DTD SVG 20010904//EN"
 "http://www.w3.org/TR/2001/REC-SVG-20010904/DTD/svg10.dtd">
<svg version="1.0" xmlns="http://www.w3.org/2000/svg"
 width="300.000000pt" height="83.000000pt" viewBox="0 0 300.000000 83.000000"
 preserveAspectRatio="xMidYMid meet">

<g transform="translate(0.000000,83.000000) scale(0.100000,-0.100000)"
fill="#000000" stroke="none">
<path d="M0 415 l0 -415 1500 0 1500 0 0 415 0 415 -1500 0 -1500 0 0 -415z
m2606 331 c10 -8 17 -17 14 -19 -3 -3 -16 3 -29 14 -27 22 -15 26 15 5z m-96
-17 c-7 -11 -14 -18 -17 -15 -3 3 0 12 7 21 18 21 23 19 10 -6z m70 -39 c0 -4
-11 -7 -25 -7 -26 0 -34 12 -12 20 15 5 37 -2 37 -13z m47 -12 c-3 -8 -6 -5
-6 6 -1 11 2 17 5 13 3 -3 4 -12 1 -19z m-127 -8 c0 -5 -2 -10 -4 -10 -3 0 -8
5 -11 10 -3 6 -1 10 4 10 6 0 11 -4 11 -10z m102 -23 c20 18 21 18 9 -4 -9
-19 -7 -24 17 -41 15 -10 35 -22 46 -25 10 -4 16 -13 13 -22 -4 -9 -1 -12 7
-9 8 3 17 1 20 -4 3 -5 -4 -12 -16 -16 -14 -3 -26 0 -31 9 -4 8 -14 12 -22 9
-10 -4 -15 1 -15 15 0 21 -16 42 -52 69 -14 11 -21 10 -42 -3 -14 -10 -23 -21
-20 -26 3 -5 -2 -9 -11 -9 -11 0 -15 -5 -11 -15 3 -8 1 -15 -5 -15 -6 0 -7 -5
-3 -12 5 -8 2 -9 -10 -5 -9 4 -15 3 -12 -2 3 -5 -3 -11 -14 -14 -11 -3 -20 -1
-20 3 0 12 -50 -14 -78 -40 -16 -15 -22 -17 -22 -7 0 8 10 17 22 20 21 6 21 6
3 34 -18 28 -18 28 2 11 26 -24 37 -23 64 7 13 13 29 25 35 25 19 0 57 48 48
62 -6 11 -5 11 9 0 19 -16 37 -8 37 16 0 13 4 11 16 -6 16 -23 17 -23 36 -5z
m6 -82 c-9 -9 -68 -12 -68 -4 0 5 17 9 37 9 20 0 34 -2 31 -5z m-328 -8 c0 -2
-9 -12 -20 -22 -24 -21 -27 -14 -4 9 15 15 24 20 24 13z m581 -14 c13 -16 12
-17 -3 -4 -17 13 -22 21 -14 21 2 0 10 -8 17 -17z m-102 -9 c-11 -14 -10 -19
10 -36 18 -14 21 -22 13 -30 -9 -9 -12 -8 -12 3 0 9 -9 24 -19 33 -16 14 -17
21 -8 32 17 19 32 17 16 -2z m-245 -5 c-5 -9 9 -10 50 -7 31 3 59 1 62 -4 3
-4 -1 -5 -9 -2 -8 3 -20 -3 -28 -12 -11 -14 -11 -18 6 -30 26 -19 32 -18 39
11 4 15 11 23 17 19 7 -4 7 -10 1 -16 -7 -7 -7 -19 1 -37 16 -37 54 -74 62
-61 3 6 11 8 16 5 5 -4 9 9 10 27 0 28 2 30 9 12 11 -27 6 -82 -9 -97 -6 -6
-11 -16 -11 -23 0 -7 -5 -14 -11 -16 -8 -3 -6 -10 5 -21 15 -15 15 -17 2 -17
-9 0 -16 -8 -16 -20 0 -11 -5 -20 -11 -20 -7 0 -8 7 -4 18 4 9 9 29 10 44 2
14 6 32 11 39 5 9 2 10 -11 5 -15 -5 -16 -4 -5 9 8 10 9 15 2 15 -6 0 -9 6 -6
14 6 17 -54 62 -66 50 -5 -5 -10 -18 -12 -29 -2 -15 3 -20 22 -21 14 -1 28 3
32 10 5 7 8 5 8 -6 0 -12 -8 -18 -22 -18 -33 -1 -65 -31 -76 -72 -9 -34 -9
-35 22 -33 17 0 41 7 54 13 12 7 22 10 22 8 0 -3 -12 -12 -27 -20 l-28 -15 25
-1 c14 -1 19 -4 13 -7 -14 -5 -17 -41 -5 -59 4 -6 16 -16 27 -22 11 -6 14 -12
8 -12 -21 0 -53 38 -53 64 0 24 -2 24 -80 24 -77 0 -80 0 -80 -23 0 -13 -4
-26 -8 -29 -5 -3 -6 8 -4 25 4 27 2 29 -27 29 -32 0 -44 -19 -13 -21 16 -1 16
-2 0 -6 -10 -2 -18 -8 -18 -13 0 -5 8 -11 18 -13 9 -3 1 -5 -18 -6 -27 0 -32
2 -20 10 12 9 13 12 1 16 -9 4 -10 8 -2 12 15 10 18 53 4 58 -6 2 -21 -6 -32
-18 -12 -13 -21 -18 -21 -12 0 12 29 38 52 46 13 5 19 0 24 -18 5 -19 13 -25
33 -25 38 0 72 11 65 21 -3 5 2 6 12 2 14 -5 15 -1 9 28 -9 38 -27 56 -67 65
-34 8 -38 23 -4 17 28 -6 37 5 29 35 -5 21 -33 32 -33 13 0 -5 -8 -12 -17 -15
-16 -6 -16 -5 0 12 10 11 20 37 22 58 5 52 6 53 14 24 4 -15 14 -24 24 -24 20
2 20 2 6 -30 -10 -20 -9 -30 5 -51 31 -47 96 -26 96 30 0 36 -20 55 -59 55
-14 0 -19 5 -15 14 6 15 -29 40 -40 29 -3 -3 -6 -1 -6 5 0 8 11 17 28 21 2 1
0 -4 -4 -10z m-196 -48 c4 -42 -17 -38 -35 8 -13 31 -13 32 9 29 18 -2 24 -10
26 -37z m503 20 c-7 -5 -10 -14 -7 -20 4 -6 2 -11 -3 -11 -6 0 -11 2 -11 4 0
2 -3 11 -6 19 -3 10 1 17 13 19 23 6 31 -1 14 -11z m49 -41 c-6 -12 -14 -19
-18 -16 -3 4 0 12 6 18 7 7 13 21 13 33 1 16 2 16 6 3 2 -9 -1 -27 -7 -38z
m-2662 14 c38 -27 25 -105 -18 -104 -12 1 -12 2 3 11 21 13 23 72 2 89 -8 7
-25 10 -40 6 -32 -8 -43 -48 -21 -81 20 -31 3 -33 -18 -3 -21 30 -20 54 4 78
24 24 57 26 88 4z m130 -12 c2 -13 -3 -24 -12 -28 -14 -5 -13 -10 5 -35 25
-36 8 -39 -19 -4 -19 23 -42 19 -27 -4 3 -5 1 -12 -5 -16 -6 -4 -10 16 -10 55
l0 61 33 -3 c24 -2 33 -8 35 -26z m132 8 c42 -42 12 -100 -51 -100 l-39 0 0
60 0 60 35 0 c22 0 43 -8 55 -20z m93 13 c-20 -4 -23 -11 -23 -53 0 -42 3 -49
23 -53 16 -3 13 -5 -10 -6 l-33 -1 0 60 0 60 33 -1 c23 -1 26 -3 10 -6z m338
-9 c16 -20 1 -48 -30 -52 -15 -2 -21 -10 -21 -28 0 -13 -4 -24 -10 -24 -11 0
-14 103 -3 113 12 13 50 7 64 -9z m103 -40 c29 -64 29 -64 17 -64 -5 0 -13 9
-16 20 -4 13 -15 20 -32 20 -16 0 -27 -7 -30 -20 -3 -11 -9 -20 -13 -20 -5 0
3 27 17 60 15 33 27 60 29 60 1 0 14 -25 28 -56z m123 40 c3 -9 1 -25 -6 -36
-10 -16 -9 -24 4 -44 22 -33 1 -30 -24 4 l-20 27 -1 -27 c0 -16 -4 -28 -10
-28 -6 0 -10 27 -10 60 l0 60 30 0 c19 0 33 -6 37 -16z m133 -95 c0 -17 -18
-9 -23 11 -7 28 -53 27 -62 -1 -4 -11 -9 -18 -11 -16 -3 2 7 31 21 63 l27 59
24 -54 c13 -29 24 -57 24 -62z m130 49 l0 -62 -44 43 -45 44 -4 -44 c-3 -40
-4 -39 -5 14 -1 31 1 57 5 57 4 0 24 -17 45 -37 l38 -37 0 42 c0 23 2 42 5 42
3 0 5 -28 5 -62z m150 42 c26 -26 26 -62 0 -85 -11 -10 -22 -16 -25 -13 -3 3
1 11 10 18 30 25 10 90 -28 90 -13 0 -28 -5 -35 -12 -17 -17 -15 -64 4 -82 14
-14 14 -16 0 -16 -19 0 -36 30 -36 64 0 50 72 74 110 36z m114 14 c20 -8 21
-40 1 -52 -14 -7 -13 -12 5 -35 28 -35 6 -35 -25 1 l-24 27 -1 -27 c0 -16 -4
-28 -10 -28 -11 0 -14 103 -3 113 8 9 36 9 57 1z m275 -16 c5 -13 16 -40 25
-60 11 -25 12 -38 5 -38 -6 0 -13 9 -16 20 -4 13 -14 20 -30 20 -16 0 -27 -7
-30 -20 -3 -11 -9 -20 -13 -20 -5 0 3 27 17 60 15 33 28 60 30 60 2 0 7 -10
12 -22z m91 -38 c0 -42 3 -49 23 -53 16 -3 13 -5 -10 -6 l-33 -1 0 61 c0 37 4
58 10 54 6 -3 10 -28 10 -55z m-1365 10 c10 -22 21 -40 25 -40 4 0 15 18 25
40 20 45 35 52 35 16 0 -13 3 -38 6 -55 4 -20 3 -31 -5 -31 -6 0 -11 13 -11
29 0 43 -14 45 -33 5 -19 -39 -29 -38 -47 6 -7 16 -16 30 -21 30 -5 0 -9 9 -9
20 0 32 16 23 35 -20z m1094 -2 l24 -42 21 42 c21 44 36 54 36 25 0 -10 3 -35
6 -55 5 -25 3 -38 -5 -38 -6 0 -11 16 -11 35 0 45 -12 44 -34 -2 l-18 -38 -21
40 -21 40 -13 -40 c-12 -38 -13 -38 -8 -6 3 18 5 44 5 57 0 35 12 29 39 -18z
m511 17 c14 -19 14 -19 -2 -6 -10 7 -18 18 -18 24 0 6 1 8 3 6 1 -2 9 -13 17
-24z m161 -2 c-8 -15 -10 -15 -11 -2 0 17 10 32 18 25 2 -3 -1 -13 -7 -23z
m283 10 c4 -9 1 -21 -5 -27 -9 -8 -10 -8 -5 2 4 7 2 19 -4 27 -7 9 -8 15 -2
15 5 0 13 -8 16 -17z m-319 -60 c5 3 16 -2 23 -9 7 -8 10 -14 6 -14 -3 0 -1
-6 5 -13 6 -8 8 -17 4 -20 -3 -4 0 -14 8 -23 13 -16 12 -16 -10 -4 -21 11 -23
10 -18 -4 3 -8 2 -18 -3 -21 -6 -4 -10 2 -10 12 0 11 -5 24 -12 31 -6 6 -13
23 -14 38 -5 42 -13 57 -29 50 -12 -4 -13 -2 -2 15 11 18 13 18 26 -11 8 -17
20 -29 26 -27z m399 38 c3 -5 -1 -11 -9 -15 -9 -3 -15 0 -15 9 0 16 16 20 24
6z m-2167 -58 c-3 -10 -5 -2 -5 17 0 19 2 27 5 18 2 -10 2 -26 0 -35z m2040
-88 c-4 -8 -13 -15 -22 -15 -13 0 -12 3 3 18 19 21 27 20 19 -3z m-181 0 c9
-8 11 -15 6 -15 -5 0 -15 7 -22 15 -7 8 -9 15 -6 15 4 0 14 -7 22 -15z m301
-97 c-3 -7 -5 -2 -5 12 0 14 2 19 5 13 2 -7 2 -19 0 -25z m-332 -58 c-3 -5
-12 -10 -18 -10 -7 0 -6 4 3 10 19 12 23 12 15 0z"/>
<path d="M2531 338 c0 -7 6 -29 13 -48 l13 -35 17 39 c22 52 21 56 -14 56 -18
0 -30 -5 -29 -12z"/>
<path d="M283 464 c-7 -18 11 -39 26 -30 17 11 13 46 -4 46 -9 0 -18 -7 -22
-16z"/>
<path d="M398 463 c-1 -20 -1 -51 1 -70 0 -7 12 -13 26 -13 24 0 45 25 45 54
0 37 -68 65 -72 29z"/>
<path d="M850 455 c0 -20 4 -26 18 -23 9 2 17 12 17 23 0 11 -8 21 -17 23 -14
3 -18 -3 -18 -23z"/>
<path d="M960 435 c0 -8 7 -15 15 -15 9 0 12 6 9 15 -4 8 -10 15 -15 15 -5 0
-9 -7 -9 -15z"/>
<path d="M1080 454 c0 -31 23 -28 28 4 2 15 -2 22 -12 22 -11 0 -16 -9 -16
-26z"/>
<path d="M1196 445 c-9 -23 -8 -25 9 -25 17 0 19 9 6 28 -7 11 -10 10 -15 -3z"/>
<path d="M1610 455 c0 -20 4 -26 18 -23 9 2 17 12 17 23 0 11 -8 21 -17 23
-14 3 -18 -3 -18 -23z"/>
<path d="M1900 435 c0 -8 7 -15 15 -15 9 0 12 6 9 15 -4 8 -10 15 -15 15 -5 0
-9 -7 -9 -15z"/>
</g>
</svg>
